# xmcd
#
# Track frame offsets:
#        150
#        21607
#        48358
#        69802
#
# Disc length: 1285 seconds
#
# Revision: 0
# Processed by: cddbd v1.5.1PL0 Copyright (c) Steve Scherf et al.
# Submitted via: ExactAudioCopy v0.95a5
#
DISCID=2e050304
DTITLE=2am - enemy of life
DYEAR=2004
DGENRE=Trance
TTITLE0=enemy of life
TTITLE1=self control 2004
TTITLE2=enemy of life -instrumental-
TTITLE3=self control 2004 -instrumental-
EXTD=
EXTT0=
EXTT1=
EXTT2=
EXTT3=
PLAYORDER=
